<?xml version="1.0" encoding="UTF-8"?>
<svg id="Camada_2" data-name="Camada 2" xmlns="http://www.w3.org/2000/svg" viewBox="0 0 299.35 477.71">
  <defs>
    <style>
      .cls-1 {
        fill: #253d2f;
      }
    </style>
  </defs>
  <g id="Camada_1-2" data-name="Camada 1">
    <path class="cls-1" d="M145.67,2.27c1.81-3.03,6.19-3.03,8,0l73.05,122.47c3.44,5.76-.71,13.07-7.42,13.07h-10.79c-6.71,0-10.86,7.31-7.42,13.07l61.17,102.62c3.43,5.76-.72,13.07-7.42,13.07h-14.55c-7.03,0-11.12,7.95-7.03,13.67l64.45,90.07c4.12,5.75-.04,13.74-7.11,13.67l-95.7-.95c-4.81-.05-8.73,3.84-8.73,8.64v62.37c0,13.06-10.59,23.65-23.65,23.65h-25.71c-13.06,0-23.65-10.59-23.65-23.65v-62.37c0-4.81-3.92-8.69-8.73-8.64l-95.7.95c-7.07.07-11.23-7.92-7.11-13.67l64.45-90.07c4.09-5.72,0-13.67-7.03-13.67h-14.55c-6.71,0-10.86-7.31-7.42-13.07l61.17-102.62c3.43-5.76-.72-13.07-7.42-13.07h-10.79c-6.71,0-10.86-7.31-7.42-13.07L145.67,2.27Z"/>
  </g>
</svg>